<svg width="150" height="150" viewBox="0 0 150 150" fill="none" xmlns="http://www.w3.org/2000/svg">
<path d="M89.9995 140H59.9998C58.0106 140 56.103 140.527 54.6965 141.464C53.29 142.402 52.4998 143.674 52.4998 145C52.4998 146.326 53.29 147.598 54.6965 148.536C56.103 149.473 58.0106 150 59.9998 150H89.9995C91.9886 150 93.8963 149.473 95.3028 148.536C96.7093 147.598 97.4995 146.326 97.4995 145C97.4995 143.674 96.7093 142.402 95.3028 141.464C93.8963 140.527 91.9886 140 89.9995 140ZM97.4995 125H52.4998C50.5107 125 48.6031 125.527 47.1965 126.464C45.79 127.402 44.9999 128.674 44.9999 130C44.9999 131.326 45.79 132.598 47.1965 133.536C48.6031 134.473 50.5107 135 52.4998 135H97.4995C99.4886 135 101.396 134.473 102.803 133.536C104.209 132.598 104.999 131.326 104.999 130C104.999 128.674 104.209 127.402 102.803 126.464C101.396 125.527 99.4886 125 97.4995 125ZM128.165 14.5908C114.07 5.18139 95.1885 0.000141702 74.9996 0.000141702C65.144 -0.0155191 55.3808 1.26708 46.2708 3.77426C37.1609 6.28145 28.8837 9.96382 21.9147 14.6099C14.9456 19.2559 9.42211 24.7741 5.66136 30.8474C1.9006 36.9208 -0.0232784 43.4296 0.000212551 50.0001C0.000212551 64.5688 8.37671 78.1969 22.9688 87.3876L25.0125 88.6657C33.4546 93.9282 44.9999 101.138 44.9999 107.5V115C44.9999 116.326 45.79 117.598 47.1965 118.536C48.6031 119.473 50.5107 120 52.4998 120H63.7497C64.7443 120 65.6981 119.737 66.4014 119.268C67.1046 118.799 67.4997 118.163 67.4997 117.5V80.8813C67.4999 80.3758 67.2702 79.882 66.8409 79.4653C66.4116 79.0485 65.8029 78.7283 65.095 78.5469C60.7642 77.369 56.65 75.8645 52.8326 74.0626C51.9748 73.6974 51.2374 73.2196 50.6654 72.6583C50.0934 72.097 49.6988 71.464 49.5056 70.7978C49.3123 70.1315 49.3245 69.4461 49.5414 68.7831C49.7583 68.1201 50.1753 67.4935 50.7671 66.9414C51.3589 66.3893 52.1131 65.9233 52.9837 65.5718C53.8542 65.2203 54.8231 64.9905 55.8311 64.8966C56.8391 64.8027 57.8653 64.8466 58.8471 65.0255C59.8289 65.2045 60.7458 65.5148 61.5419 65.9376C65.0106 67.5751 71.6903 70.0001 74.9996 70.0001C78.309 70.0001 84.9886 67.5688 88.4667 65.9376C90.0862 65.2588 92.0335 65.0183 93.9102 65.2651C95.787 65.512 97.4513 66.2276 98.5627 67.2655C99.6741 68.3035 100.149 69.5854 99.8891 70.8489C99.6296 72.1124 98.6557 73.262 97.1667 74.0626C93.3486 75.8612 89.2344 77.3626 84.9043 78.5376C84.1964 78.7189 83.5876 79.0391 83.1583 79.4559C82.729 79.8726 82.4993 80.3664 82.4996 80.8719V117.5C82.4996 118.163 82.8947 118.799 83.5979 119.268C84.3012 119.737 85.255 120 86.2496 120H97.4995C99.4886 120 101.396 119.473 102.803 118.536C104.209 117.598 104.999 116.326 104.999 115V107.5C104.999 101.288 116.418 94.0844 124.757 88.8219L127.059 87.3657C142.068 77.8126 149.999 64.8782 149.999 50.0001C150.049 43.429 148.145 36.9165 144.397 30.8388C140.649 24.7611 135.132 19.2387 128.165 14.5908V14.5908Z" fill="black"/>
</svg>
