<svg width="150" height="150" viewBox="0 0 150 150" fill="none" xmlns="http://www.w3.org/2000/svg">
<path d="M67.3543 109.839C66.7953 109.841 66.2395 109.754 65.7078 109.581C64.7519 109.272 63.9022 108.7 63.256 107.93C62.6098 107.161 62.193 106.225 62.0534 105.23C61.3339 100.21 55.3771 94.3666 49.7984 93.232C48.8771 93.0415 48.0224 92.6116 47.3201 91.9857C46.6178 91.3597 46.0929 90.5598 45.798 89.6664C45.5032 88.7731 45.4489 87.8178 45.6407 86.8968C45.8324 85.9757 46.2634 85.1215 46.8902 84.42L117.532 5.73738C117.596 5.66375 117.663 5.59347 117.73 5.52653C121.279 1.98742 126.086 0 131.098 0C136.109 0 140.917 1.98742 144.465 5.52653C148.003 9.06658 149.993 13.8645 150 18.8692C150.007 23.8739 148.03 28.6773 144.502 32.2271L71.2129 108.199C70.7131 108.718 70.1138 109.13 69.4508 109.412C68.7878 109.694 68.0747 109.839 67.3543 109.839ZM29.4514 150C18.6956 150 7.54821 144.347 1.05591 135.609C0.464187 134.812 0.10552 133.867 0.0199458 132.878C-0.0656283 131.889 0.125259 130.896 0.571298 130.009C1.01734 129.123 1.70098 128.378 2.54591 127.857C3.39084 127.336 4.36381 127.061 5.35622 127.061C7.14328 127.061 12.0493 125.431 12.0493 120.177C12.0493 107.101 22.5575 96.4617 35.4751 96.4617C48.3928 96.4617 58.901 107.101 58.901 120.177C58.901 136.616 45.6888 150 29.4514 150V150Z" fill="black"/>
</svg>
