<svg width="183" height="183" viewBox="0 0 183 183" fill="none" xmlns="http://www.w3.org/2000/svg">
<path d="M162.313 20.7908C159.576 18.0544 155.865 16.5172 151.995 16.5172C148.125 16.5172 144.414 18.0544 141.677 20.7908L65.5977 105.519C73.9153 107.213 82.2184 115.354 83.35 123.272L162.313 41.4261C165.049 38.6896 166.586 34.9783 166.586 31.1084C166.586 27.2386 165.049 23.5272 162.313 20.7908V20.7908ZM49.0203 120.389C38.2522 120.389 29.5598 129.218 29.5598 140.159C29.5598 148.79 22.0351 153.338 16.5862 153.338C22.5541 161.378 32.7384 166.517 42.5335 166.517C56.8693 166.517 68.4808 154.722 68.4808 140.159C68.4808 129.218 59.7884 120.389 49.0203 120.389Z" stroke="black" stroke-width="32" stroke-linecap="round" stroke-linejoin="round"/>
</svg>
